<svg width="520" height="519" viewBox="0 0 520 519" fill="none" xmlns="http://www.w3.org/2000/svg">
<rect width="520" height="519" fill="#355573"/>
<path d="M151.096 111V22.1H187.291C191.44 23.624 195.123 26.291 198.34 30.101C201.557 33.911 203.166 38.5253 203.166 43.944C203.166 53.5113 200.033 60.2 193.768 64.01V64.518C201.557 68.836 205.452 75.6093 205.452 84.838C205.452 95.4213 200.076 104.142 189.323 111H151.096ZM168.368 58.803H180.941C184.666 56.517 186.529 53.0457 186.529 48.389C186.529 43.7323 184.793 40.0493 181.322 37.34H168.368V58.803ZM168.368 96.268H181.449C182.973 95.1673 184.328 93.4317 185.513 91.061C186.783 88.6903 187.418 86.3197 187.418 83.949C187.418 81.5783 186.91 79.4193 185.894 77.472C184.878 75.5247 183.608 74.0853 182.084 73.154H168.368V96.268ZM227.211 37.34H208.034V22.1H263.66V37.34H244.483V111H227.211V37.34ZM271.027 111V22.1H316.62V37.34H288.426V58.549H313.572V73.281H288.426V96.268H317.128V111H271.027ZM367.123 22.1C373.05 26.926 377.452 33.403 380.331 41.531C383.21 49.659 384.649 58.041 384.649 66.677C384.649 75.2283 383.252 83.3563 380.458 91.061C377.664 98.7657 373.219 105.412 367.123 111H362.932L366.869 125.351H350.613L346.676 111H340.961C334.865 105.412 330.42 98.7657 327.626 91.061C324.832 83.3563 323.435 75.2283 323.435 66.677C323.435 58.041 324.874 49.659 327.753 41.531C330.632 33.403 335.034 26.926 340.961 22.1H367.123ZM349.47 96.268H358.614C360.731 93.8127 362.509 89.8333 363.948 84.33C365.472 78.742 366.234 72.8577 366.234 66.677C366.234 60.4963 365.514 54.6967 364.075 49.278C362.636 43.7747 360.858 39.7953 358.741 37.34H349.47C347.353 39.7953 345.533 43.7747 344.009 49.278C342.57 54.6967 341.85 60.4963 341.85 66.677C341.85 72.8577 342.57 78.742 344.009 84.33C345.533 89.8333 347.353 93.8127 349.47 96.268Z" fill="white"/>
<path d="M192.224 370.1H222.704V385.34H198.32L197.939 386.102L218.259 423.186C222.408 430.637 224.482 436.309 224.482 440.204C224.482 448.755 221.646 455.021 215.973 459H182.318V444.268H208.607L208.988 443.506L186.128 402.485C182.826 396.558 181.175 391.732 181.175 388.007C181.175 379.202 184.858 373.233 192.224 370.1ZM272.875 370.1C278.802 374.926 283.204 381.403 286.083 389.531C288.962 397.659 290.401 406.041 290.401 414.677C290.401 423.228 289.004 431.356 286.21 439.061C283.416 446.766 278.971 453.412 272.875 459H268.684L272.621 473.351H256.365L252.428 459H246.713C240.617 453.412 236.172 446.766 233.378 439.061C230.584 431.356 229.187 423.228 229.187 414.677C229.187 406.041 230.626 397.659 233.505 389.531C236.384 381.403 240.786 374.926 246.713 370.1H272.875ZM255.222 444.268H264.366C266.483 441.813 268.261 437.833 269.7 432.33C271.224 426.742 271.986 420.858 271.986 414.677C271.986 408.496 271.266 402.697 269.827 397.278C268.388 391.775 266.61 387.795 264.493 385.34H255.222C253.105 387.795 251.285 391.775 249.761 397.278C248.322 402.697 247.602 408.496 247.602 414.677C247.602 420.858 248.322 426.742 249.761 432.33C251.285 437.833 253.105 441.813 255.222 444.268ZM300.306 459V370.1H317.705V444.268H344.121V459H300.306Z" fill="white"/>
<path d="M128 145C128 138.373 133.373 133 140 133H375C381.627 133 387 138.373 387 145V340C387 346.627 381.627 352 375 352H140C133.373 352 128 346.627 128 340V145Z" fill="#888888"/>
<g clip-path="url(#clip0_0_1)">
<path d="M219.846 279.718L230.4 271.294L224.793 260.252L212.193 264.647C210.6 262.908 208.812 261.367 206.85 260.032L208.603 246.276L197.159 242.607L191.217 255.02C188.879 254.964 186.556 255.2 184.315 255.711L176.247 244.691L165.672 250.545L169.881 263.702C168.215 265.365 166.739 267.232 165.46 269.281L152.286 267.45L148.773 279.4L160.661 285.604C160.607 288.045 160.833 290.471 161.322 292.811L150.768 301.235L156.375 312.277L168.975 307.882C170.568 309.622 172.356 311.163 174.318 312.498L172.565 326.254L184.009 329.923L189.951 317.509C192.289 317.565 194.612 317.33 196.853 316.819L204.921 327.839L215.496 321.984L211.287 308.828C212.953 307.165 214.429 305.297 215.708 303.249L228.878 305.091L232.392 293.142L220.503 286.938C220.557 284.497 220.331 282.071 219.842 279.73L219.846 279.718ZM187.071 298.214C180.753 296.189 177.2 289.192 179.14 282.596C181.079 276 187.78 272.29 194.097 274.315C200.415 276.34 203.968 283.337 202.028 289.933C200.089 296.529 193.388 300.239 187.071 298.214ZM356.473 254.449L359.986 242.499L348.607 236.354C348.832 234.778 348.981 233.205 349.067 231.637L361.393 228.004L360.256 215.558L347.491 214.421C347.116 212.889 346.683 211.377 346.183 209.883L356.245 201.602L350.637 190.56L338.427 194.609C337.52 193.35 336.567 192.117 335.563 190.932L341.825 179.262L332.596 171.295L322.8 179.91C321.509 179.104 320.174 178.362 318.803 177.661L320.316 164.378L308.872 160.709L302.987 172.591C301.478 172.356 299.971 172.2 298.469 172.111L294.99 159.241L283.07 160.428L281.982 173.756C280.514 174.148 279.066 174.6 277.635 175.122L269.704 164.616L259.129 170.471L263.007 183.221C261.802 184.168 260.62 185.162 259.486 186.211L248.309 179.673L240.68 189.309L248.93 199.538C248.158 200.886 247.448 202.279 246.776 203.712L234.055 202.131L230.541 214.081L241.921 220.226C241.696 221.801 241.546 223.375 241.461 224.943L229.135 228.575L230.272 241.022L243.036 242.158C243.412 243.691 243.844 245.203 244.344 246.697L234.283 254.978L239.89 266.02L252.101 261.971C253.008 263.23 253.96 264.463 254.964 265.648L248.703 277.318L257.932 285.285L267.728 276.67C269.019 277.476 270.353 278.217 271.725 278.919L270.211 292.202L281.655 295.871L287.541 283.988C289.05 284.224 290.556 284.38 292.058 284.469L295.537 297.339L307.457 296.152L308.546 282.824C310.014 282.431 311.461 281.98 312.892 281.458L320.823 291.964L331.398 286.109L327.521 273.359C328.726 272.412 329.907 271.418 331.042 270.369L342.219 276.907L349.848 267.271L341.597 257.042C342.369 255.694 343.08 254.3 343.751 252.868L356.473 254.449ZM287.645 254.288C273.901 249.882 266.176 234.67 270.396 220.318C274.615 205.967 289.184 197.901 302.928 202.307C316.673 206.713 324.397 221.925 320.178 236.276C315.958 250.628 301.39 258.693 287.645 254.288Z" fill="#355573" stroke="black"/>
</g>
<g filter="url(#filter0_d_0_1)">
<path d="M261.343 369.657C264.467 372.781 269.533 372.781 272.657 369.657L323.569 318.745C326.693 315.621 326.693 310.556 323.569 307.431C320.444 304.307 315.379 304.307 312.255 307.431L267 352.686L221.745 307.431C218.621 304.307 213.556 304.307 210.431 307.431C207.307 310.556 207.307 315.621 210.431 318.745L261.343 369.657ZM259 359L259 364L275 364L275 359L259 359Z" fill="white"/>
</g>
<g filter="url(#filter1_d_0_1)">
<path d="M261.343 165.657C264.467 168.781 269.533 168.781 272.657 165.657L323.569 114.745C326.693 111.621 326.693 106.556 323.569 103.431C320.444 100.307 315.379 100.307 312.255 103.431L267 148.686L221.745 103.431C218.621 100.307 213.556 100.307 210.431 103.431C207.307 106.556 207.307 111.621 210.431 114.745L261.343 165.657ZM259 154V160H275V154H259Z" fill="white"/>
</g>
<defs>
<filter id="filter0_d_0_1" x="204.088" y="305.088" width="125.823" height="74.9117" filterUnits="userSpaceOnUse" color-interpolation-filters="sRGB">
<feFlood flood-opacity="0" result="BackgroundImageFix"/>
<feColorMatrix in="SourceAlpha" type="matrix" values="0 0 0 0 0 0 0 0 0 0 0 0 0 0 0 0 0 0 127 0" result="hardAlpha"/>
<feOffset dy="4"/>
<feGaussianBlur stdDeviation="2"/>
<feComposite in2="hardAlpha" operator="out"/>
<feColorMatrix type="matrix" values="0 0 0 0 0 0 0 0 0 0 0 0 0 0 0 0 0 0 0.25 0"/>
<feBlend mode="normal" in2="BackgroundImageFix" result="effect1_dropShadow_0_1"/>
<feBlend mode="normal" in="SourceGraphic" in2="effect1_dropShadow_0_1" result="shape"/>
</filter>
<filter id="filter1_d_0_1" x="204.088" y="101.088" width="125.823" height="74.9117" filterUnits="userSpaceOnUse" color-interpolation-filters="sRGB">
<feFlood flood-opacity="0" result="BackgroundImageFix"/>
<feColorMatrix in="SourceAlpha" type="matrix" values="0 0 0 0 0 0 0 0 0 0 0 0 0 0 0 0 0 0 127 0" result="hardAlpha"/>
<feOffset dy="4"/>
<feGaussianBlur stdDeviation="2"/>
<feComposite in2="hardAlpha" operator="out"/>
<feColorMatrix type="matrix" values="0 0 0 0 0 0 0 0 0 0 0 0 0 0 0 0 0 0 0.25 0"/>
<feBlend mode="normal" in2="BackgroundImageFix" result="effect1_dropShadow_0_1"/>
<feBlend mode="normal" in="SourceGraphic" in2="effect1_dropShadow_0_1" result="shape"/>
</filter>
<clipPath id="clip0_0_1">
<rect width="192.285" height="199.286" fill="white" transform="matrix(0.952271 0.305255 -0.282074 0.959393 194.446 124.056)"/>
</clipPath>
</defs>
</svg>
