<svg width="401" height="314" viewBox="0 0 401 314" fill="none" xmlns="http://www.w3.org/2000/svg">
<rect width="401" height="314" rx="5" fill="white"/>
<g clip-path="url(#clip0_0_1)">
<path d="M205.876 102C203.175 102 201.001 104.707 201.001 108.069V165.725C201.001 169.087 203.175 171.794 205.876 171.794H230.251V183.932H220.501V186.966H215.626V190.001H264.376V186.966H259.501V183.932H249.751V171.794H274.125C276.826 171.794 279.001 169.087 279.001 165.725V108.069C279.001 104.707 276.826 102 274.125 102H205.876ZM205.876 108.069H274.125V165.725H205.876V108.069ZM241.219 119.543L227.965 127.888L241.219 137.75L254.778 127.888L241.219 119.543ZM227.965 130.923V149.13L240.153 158.233V140.026L227.965 130.923ZM254.778 131.017L242.59 140.12V158.327L254.778 149.224V131.017Z" fill="#00BCF2"/>
</g>
<g clip-path="url(#clip1_0_1)">
<path d="M205.876 200C203.175 200 201.001 202.707 201.001 206.069V263.725C201.001 267.087 203.175 269.794 205.876 269.794H230.251V281.932H220.501V284.966H215.626V288.001H264.376V284.966H259.501V281.932H249.751V269.794H274.125C276.826 269.794 279.001 267.087 279.001 263.725V206.069C279.001 202.707 276.826 200 274.125 200H205.876ZM205.876 206.069H274.125V263.725H205.876V206.069ZM241.219 217.543L227.965 225.888L241.219 235.75L254.778 225.888L241.219 217.543ZM227.965 228.923V247.13L240.153 256.233V238.026L227.965 228.923ZM254.778 229.017L242.59 238.12V256.327L254.778 247.224V229.017Z" fill="#00BCF2"/>
</g>
<g clip-path="url(#clip2_0_1)">
<path d="M298.876 102C296.175 102 294.001 104.707 294.001 108.069V165.725C294.001 169.087 296.175 171.794 298.876 171.794H323.251V183.932H313.501V186.966H308.626V190.001H357.376V186.966H352.501V183.932H342.751V171.794H367.125C369.826 171.794 372.001 169.087 372.001 165.725V108.069C372.001 104.707 369.826 102 367.125 102H298.876ZM298.876 108.069H367.125V165.725H298.876V108.069ZM334.219 119.543L320.965 127.888L334.219 137.75L347.778 127.888L334.219 119.543ZM320.965 130.923V149.13L333.153 158.233V140.026L320.965 130.923ZM347.778 131.017L335.59 140.12V158.327L347.778 149.224V131.017Z" fill="#00BCF2"/>
</g>
<g clip-path="url(#clip3_0_1)">
<path d="M298.876 200C296.175 200 294.001 202.707 294.001 206.069V263.725C294.001 267.087 296.175 269.794 298.876 269.794H323.251V281.932H313.501V284.966H308.626V288.001H357.376V284.966H352.501V281.932H342.751V269.794H367.125C369.826 269.794 372.001 267.087 372.001 263.725V206.069C372.001 202.707 369.826 200 367.125 200H298.876ZM298.876 206.069H367.125V263.725H298.876V206.069ZM334.219 217.543L320.965 225.888L334.219 235.75L347.778 225.888L334.219 217.543ZM320.965 228.923V247.13L333.153 256.233V238.026L320.965 228.923ZM347.778 229.017L335.59 238.12V256.327L347.778 247.224V229.017Z" fill="#00BCF2"/>
</g>
<g clip-path="url(#clip4_0_1)">
<path d="M88.3125 69.1875C88.3172 66.8406 87.7345 64.5298 86.6174 62.4658C85.5004 60.4018 83.8845 58.6501 81.9171 57.3706C79.9497 56.091 77.6933 55.3242 75.3537 55.14C73.014 54.9558 70.6654 55.3601 68.522 56.316C66.3786 57.272 64.5085 58.7492 63.0823 60.613C61.656 62.4768 60.7189 64.6679 60.3563 66.9867C59.9938 69.3054 60.2173 71.678 61.0066 73.8883C61.7958 76.0985 63.1257 78.076 64.875 79.6406V97.3125L74.25 92.8767L83.625 97.3125V79.6406C85.0984 78.3267 86.2777 76.7163 87.0855 74.9149C87.8933 73.1135 88.3114 71.1617 88.3125 69.1875ZM78.9375 89.9063L74.25 87.6874L69.5625 89.9063V82.4297C72.5917 83.5238 75.9082 83.5238 78.9375 82.4297V89.9063ZM74.25 78.5625C72.3958 78.5625 70.5832 78.0127 69.0415 76.9825C67.4998 75.9524 66.2982 74.4882 65.5886 72.7752C64.879 71.0621 64.6934 69.1771 65.0551 67.3585C65.4168 65.54 66.3097 63.8695 67.6209 62.5584C68.932 61.2473 70.6024 60.3544 72.421 59.9926C74.2396 59.6309 76.1246 59.8166 77.8376 60.5261C79.5507 61.2357 81.0149 62.4373 82.045 63.979C83.0751 65.5207 83.625 67.3333 83.625 69.1875C83.6222 71.6731 82.6336 74.056 80.876 75.8136C79.1185 77.5711 76.7355 78.5597 74.25 78.5625Z" fill="black"/>
<path d="M39.0938 59.8125H55.5V64.5H39.0938V59.8125Z" fill="black"/>
<path d="M39.0938 45.75H62.5312V50.4375H39.0938V45.75Z" fill="black"/>
<path d="M32.0625 97.3125C30.8197 97.3112 29.6282 96.8169 28.7494 95.9381C27.8706 95.0593 27.3763 93.8678 27.375 92.625V36.375C27.3763 35.1322 27.8706 33.9407 28.7494 33.0619C29.6282 32.1831 30.8197 31.6888 32.0625 31.6875H69.5625C70.8053 31.6888 71.9968 32.1831 72.8756 33.0619C73.7544 33.9407 74.2487 35.1322 74.25 36.375V45.75H69.5625V36.375H32.0625V92.625H55.5V97.3125H32.0625Z" fill="black"/>
</g>
<line x1="87.2173" y1="69.5497" x2="201.217" y2="124.55" stroke="black"/>
<line x1="82.3899" y1="93.687" x2="200.39" y2="240.687" stroke="black"/>
<line x1="84.2957" y1="79.5968" x2="294.296" y2="233.597" stroke="black"/>
<line x1="88.1426" y1="63.5208" x2="293.143" y2="124.521" stroke="black"/>
<path fill-rule="evenodd" clip-rule="evenodd" d="M192.062 229.984L201 226.812L209.938 229.984V240.861C209.938 243.113 208.585 245.966 206.918 247.234L201 251.734L195.082 247.234C193.414 245.966 192.062 243.111 192.062 240.861V229.984Z" fill="#FCC24C"/>
<path fill-rule="evenodd" clip-rule="evenodd" d="M194.094 232.011L201 229.531L207.906 232.011V239.621C207.906 241.875 206.558 244.739 204.897 246.017L201 249.016L197.103 246.017C195.441 244.738 194.094 241.875 194.094 239.621V232.011Z" fill="#ED9111"/>
<path fill-rule="evenodd" clip-rule="evenodd" d="M201 239.953L199.09 241.073L199.455 238.701L197.909 237.021L200.045 236.674L201 234.516L201.955 236.674L204.091 237.021L202.545 238.701L202.91 241.073L201 239.953Z" fill="#595959"/>
<path fill-rule="evenodd" clip-rule="evenodd" d="M283.062 224.984L292 221.812L300.938 224.984V235.861C300.938 238.113 299.585 240.966 297.918 242.234L292 246.734L286.082 242.234C284.414 240.966 283.062 238.111 283.062 235.861V224.984Z" fill="#FCC24C"/>
<path fill-rule="evenodd" clip-rule="evenodd" d="M285.094 227.011L292 224.531L298.906 227.011V234.621C298.906 236.875 297.558 239.739 295.897 241.017L292 244.016L288.103 241.017C286.441 239.738 285.094 236.875 285.094 234.621V227.011Z" fill="#ED9111"/>
<path fill-rule="evenodd" clip-rule="evenodd" d="M292 234.953L290.09 236.073L290.455 233.701L288.909 232.021L291.045 231.674L292 229.516L292.955 231.674L295.091 232.021L293.545 233.701L293.91 236.073L292 234.953Z" fill="#595959"/>
<path fill-rule="evenodd" clip-rule="evenodd" d="M192.062 115.984L201 112.812L209.938 115.984V126.861C209.938 129.113 208.585 131.966 206.918 133.234L201 137.734L195.082 133.234C193.414 131.966 192.062 129.111 192.062 126.861V115.984Z" fill="#FCC24C"/>
<path fill-rule="evenodd" clip-rule="evenodd" d="M194.094 118.011L201 115.531L207.906 118.011V125.621C207.906 127.875 206.558 130.739 204.897 132.017L201 135.016L197.103 132.017C195.441 130.738 194.094 127.875 194.094 125.621V118.011Z" fill="#ED9111"/>
<path fill-rule="evenodd" clip-rule="evenodd" d="M201 125.953L199.09 127.073L199.455 124.701L197.909 123.021L200.045 122.674L201 120.516L201.955 122.674L204.091 123.021L202.545 124.701L202.91 127.073L201 125.953Z" fill="#595959"/>
<path fill-rule="evenodd" clip-rule="evenodd" d="M285.062 115.984L294 112.812L302.938 115.984V126.861C302.938 129.113 301.585 131.966 299.918 133.234L294 137.734L288.082 133.234C286.414 131.966 285.062 129.111 285.062 126.861V115.984Z" fill="#FCC24C"/>
<path fill-rule="evenodd" clip-rule="evenodd" d="M287.094 118.011L294 115.531L300.906 118.011V125.621C300.906 127.875 299.558 130.739 297.897 132.017L294 135.016L290.103 132.017C288.441 130.738 287.094 127.875 287.094 125.621V118.011Z" fill="#ED9111"/>
<path fill-rule="evenodd" clip-rule="evenodd" d="M294 125.953L292.09 127.073L292.455 124.701L290.909 123.021L293.045 122.674L294 120.516L294.955 122.674L297.091 123.021L295.545 124.701L295.91 127.073L294 125.953Z" fill="#595959"/>
<defs>
<clipPath id="clip0_0_1">
<rect width="78" height="88" fill="white" transform="translate(201 102)"/>
</clipPath>
<clipPath id="clip1_0_1">
<rect width="78" height="88" fill="white" transform="translate(201 200)"/>
</clipPath>
<clipPath id="clip2_0_1">
<rect width="78" height="88" fill="white" transform="translate(294 102)"/>
</clipPath>
<clipPath id="clip3_0_1">
<rect width="78" height="88" fill="white" transform="translate(294 200)"/>
</clipPath>
<clipPath id="clip4_0_1">
<rect width="75" height="75" fill="white" transform="translate(18 27)"/>
</clipPath>
</defs>
</svg>
