<?xml version="1.0" encoding="UTF-8"?><svg id="Layer_1" xmlns="http://www.w3.org/2000/svg" viewBox="0 0 173.72 60.58"><defs><style>.cls-1{fill:#004e75;}</style></defs><path class="cls-1" d="M130.2,26.54c.05-.08,.04-.17,.04-.26,0-.31,0-.63,0-.94,0-6.21,0-12.43,0-18.64,0-.22,0-.44,.02-.66,0-.07,.07-.14,.14-.15,.05,0,.11-.01,.16-.01,.18,0,.37,0,.55,0,7.3,0,14.61,0,21.91,0,1.37,0,2.73,.06,4.09,.2,1.29,.14,2.56,.35,3.8,.68,1.13,.3,2.21,.7,3.25,1.23,.48,.24,.94,.52,1.38,.82,2.06,1.42,3.41,3.33,4.08,5.74,.27,1,.44,2.02,.46,3.05,.01,.61,.02,1.22-.01,1.82-.08,1.35-.37,2.66-.9,3.91-.6,1.39-1.47,2.59-2.59,3.61-.6,.55-1.26,1.03-1.95,1.45-.14,.09-.28,.18-.42,.26-.05,.03-.04,.16,.03,.19,.15,.08,.3,.15,.44,.23,.42,.23,.84,.45,1.25,.7,.74,.45,1.43,.98,2.06,1.58,1.43,1.37,2.41,3.02,2.96,4.92,.26,.91,.41,1.83,.49,2.77,.08,1.02,.06,2.03-.04,3.04-.15,1.57-.53,3.09-1.22,4.51-.87,1.82-2.15,3.29-3.77,4.48-1.23,.9-2.57,1.58-4,2.11-1.25,.46-2.53,.78-3.84,1.01-1.07,.19-2.15,.32-3.24,.4-.9,.06-1.81,.1-2.71,.1-7.21,0-14.42,0-21.63,0-.15,0-.3,0-.44,0-.23,0-.28-.07-.29-.3,0-.18,0-.37,0-.55,0-6.57,0-13.13,0-19.7,0-.35,0-.7-.04-1.15-.09,.44-.15,.78-.19,1.13-.31,2.82-.95,5.55-2.12,8.15-1.24,2.77-3,5.15-5.34,7.1-1.67,1.39-3.53,2.46-5.55,3.27-1.48,.59-3,1.03-4.55,1.34-.96,.19-1.92,.35-2.89,.45-1.01,.11-2.02,.19-3.03,.22-.9,.03-1.81,.04-2.71,.04-5.96,0-11.91,0-17.87,0-11.66,0-23.31,0-34.97,0-.22,0-.44,0-.66,0-.25,0-.27-.08-.28-.31,0-.18,0-.37,0-.55,0-12.89,0-25.78,0-38.67,0-1.4,0-2.8,0-4.2,0-.17-.01-.33-.02-.5,0-.01-.01-.03-.03-.04-.04-.02-.08,0-.09,.04-.04,.1-.09,.2-.12,.31-.89,2.91-1.77,5.82-2.65,8.73-1.49,4.9-2.98,9.8-4.47,14.7-2.01,6.61-4.02,13.22-6.03,19.83-.05,.16-.09,.32-.15,.48-.04,.11-.11,.19-.24,.19-.15,0-.29,.01-.44,.01-6.1,0-12.21,0-18.31,0-.65,0-.6,.05-.79-.59-1.46-4.87-2.93-9.74-4.4-14.61-2-6.65-4-13.3-6.01-19.95-1.3-4.32-2.61-8.64-3.91-12.97-.05-.16-.09-.32-.14-.48-.04-.15,.03-.23,.2-.24,.06,0,.11,0,.17,0,.07,0,.15,0,.22,0,5.13,0,10.25,0,15.38,0,.18,0,.37,0,.52,.01,.12,.1,.14,.2,.17,.31,.26,1.06,.52,2.11,.78,3.17,.65,2.61,1.29,5.22,1.94,7.83,.72,2.92,1.44,5.83,2.16,8.75,.68,2.75,1.36,5.51,2.05,8.26,.28,1.13,.56,2.25,.83,3.38,.04,.16,.06,.33,.17,.46,.12-.09,.13-.22,.17-.34,.15-.61,.3-1.22,.45-1.82,.57-2.33,1.15-4.65,1.72-6.98,.68-2.75,1.36-5.51,2.04-8.26,.72-2.9,1.43-5.8,2.15-8.69,.46-1.88,.93-3.76,1.4-5.63,.04-.14,.06-.29,.17-.41,.06,0,.14-.02,.21-.02,.17,0,.33,0,.5,0,9.68,0,19.36,0,29.05,0,.22,0,.44,0,.66,.01,.07,0,.14,.07,.15,.14,0,.07,.02,.15,.02,.22,0,.2,0,.41,0,.61,0,11.23,0,22.46,0,33.69,0,.22,0,.44,.02,.66,0,.09,.09,.17,.18,.18,.15,0,.29,.01,.44,.01,5.99,0,11.99,0,17.98,0,.07,0,.15,0,.22,0,.37,0,.4-.04,.41-.41,0-.18,0-.37,0-.55,0-11.23,0-22.46,0-33.69,0-.22,0-.44,0-.66,0-.12,.08-.19,.22-.2,.15,0,.29,0,.44,0,6.57,0,13.13,0,19.7,0,1.13,0,2.25,.05,3.37,.14,2.01,.16,3.99,.46,5.94,.98,1.81,.48,3.55,1.12,5.2,2,3.99,2.14,6.84,5.31,8.59,9.48,.59,1.42,1.03,2.88,1.34,4.38,.2,.98,.36,1.96,.46,2.95,.02,.24,.08,.47,.12,.71,0,.01,.02,.02,.04,.04Zm-30.28,3.75c0,3.52,0,7.04,0,10.56,0,.17,0,.33,0,.5,0,.07,.01,.15,.02,.22,0,.07,.08,.14,.14,.15,.17,0,.33,.02,.5,.02,1.57,0,3.13,0,4.7,0,.28,0,.55,0,.83-.01,.91-.04,1.8-.19,2.66-.46,1.8-.57,3.18-1.67,4.13-3.3,.12-.21,.23-.42,.34-.63,.33-.68,.58-1.39,.76-2.13,.33-1.29,.48-2.61,.54-3.93,.04-1.11,.03-2.21-.08-3.31-.09-.96-.24-1.9-.48-2.83-.24-.91-.58-1.78-1.07-2.6-.78-1.31-1.87-2.26-3.27-2.87-.54-.24-1.1-.41-1.68-.54-.94-.21-1.9-.28-2.85-.29-1.53-.01-3.06,0-4.59,0-.11,0-.22,0-.33,0-.16,0-.24,.09-.25,.24,0,.18,0,.37,0,.55,0,3.56,0,7.11,0,10.67Zm44.45,8.8c0,1.27,0,2.54,0,3.81,0,.17,0,.33,.01,.5,0,.09,.09,.18,.18,.18,.18,0,.37,.01,.55,.01,1.77,0,3.54,0,5.31,0,.64,0,1.29,0,1.93-.08,.48-.05,.95-.13,1.41-.25,.32-.08,.63-.19,.93-.33,.98-.45,1.6-1.21,1.9-2.24,.08-.28,.12-.58,.16-.87,.11-.8,.04-1.58-.16-2.36-.28-1.06-.92-1.83-1.94-2.27-.12-.05-.24-.1-.36-.14-.45-.16-.92-.26-1.39-.34-.6-.1-1.21-.12-1.82-.13-2.08,0-4.16,0-6.25,0-.46,0-.46,0-.47,.46,0,.13,0,.26,0,.39,0,1.22,0,2.43,0,3.65Zm3.83-14.66c.52,0,1.03,0,1.55,0,.65,0,1.29-.01,1.93-.07,.48-.04,.95-.12,1.41-.26,.26-.08,.52-.19,.77-.31,.64-.32,1.07-.83,1.31-1.5,.12-.33,.2-.67,.22-1.02,.03-.61,.04-1.21-.11-1.81-.24-.94-.79-1.61-1.69-1.98-.39-.17-.8-.27-1.22-.35-.55-.11-1.1-.13-1.65-.13-1.97,0-3.94,0-5.92,0-.06,0-.11,0-.17,0-.04,0-.07,0-.11,.01-.07,0-.14,.07-.15,.14,0,.15-.02,.29-.02,.44,0,2.08,0,4.16,0,6.25,0,.13,0,.26,.01,.39,0,.09,.08,.18,.17,.19,.17,.01,.33,.02,.5,.02,1.05,0,2.1,0,3.15,0Z"/></svg>